<svg xmlns="http://www.w3.org/2000/svg" style="display: none;">
    <symbol id="hiking" viewBox="0 0 512 512">
            <path d="M166.526,247.467v17.067c0,9.412-7.654,17.067-17.067,17.067h-25.6c-9.412,0-17.067-7.654-17.067-17.067v-128 c0-9.412,7.654-17.067,17.067-17.067h25.6c7.006,0,13.295,4.292,15.855,10.761l1.314,7.74l16.828-2.859l-1.451-8.533 c-0.085-0.486-0.205-0.956-0.367-1.417c-4.804-13.619-17.741-22.758-32.179-22.758h-0.009h-25.6 c-18.825,0-34.133,15.309-34.133,34.133v128c0,18.825,15.309,34.133,34.133,34.133h25.6c18.825,0,34.133-15.309,34.142-34.133 v-17.067H166.526z"/>
            <path d="M136.651,25.6c-25.882,0-46.933,21.052-46.933,46.933s21.052,46.933,46.933,46.933s46.933-21.052,46.933-46.933 S162.533,25.6,136.651,25.6z M136.651,102.4c-16.469,0-29.867-13.397-29.867-29.867c0-16.469,13.397-29.867,29.867-29.867 c16.469,0,29.867,13.397,29.867,29.867C166.518,89.003,153.12,102.4,136.651,102.4z"/>
            <path d="M98.251,179.2H79.478c-13.175,0-23.893,10.718-23.893,23.893v37.547c0,13.175,10.718,23.893,23.893,23.893h18.773 c4.71,0,8.533-3.814,8.533-8.533v-68.267C106.784,183.023,102.961,179.2,98.251,179.2z M89.718,247.467h-10.24 c-3.763,0-6.827-3.063-6.827-6.827v-37.547c0-3.763,3.063-6.827,6.827-6.827h10.24V247.467z"/>
            <path d="M243.318,102.4h-34.133v17.067h34.133c14.114,0,25.6,11.486,25.6,25.6v145.067h-85.333V230.4h-17.067v68.267 c0,4.719,3.823,8.533,8.533,8.533h102.4c4.719,0,8.533-3.814,8.533-8.533v-153.6C285.984,121.54,266.844,102.4,243.318,102.4z"/>
            <path d="M276.052,31.889l-16.469,4.489c0.555,2.031,0.828,4.122,0.811,6.289V76.8c0,14.114-11.486,25.6-25.6,25.6 c-14.114,0-25.6-11.486-25.6-25.6V42.59c-0.017-2.108,0.256-4.19,0.802-6.204l-16.461-4.514 c-0.973,3.533-1.451,7.194-1.417,10.795V76.8c0,23.526,19.14,42.667,42.667,42.667c23.526,0,42.667-19.14,42.675-42.667V42.743 C277.494,39.083,277.016,35.43,276.052,31.889z"/>
            <path d="M285.984,0h-59.733c-18.825,0-34.133,15.309-34.133,34.133v34.133c0,3.447,2.082,6.562,5.265,7.885 c1.058,0.435,2.167,0.648,3.268,0.648c2.219,0,4.403-0.87,6.033-2.5l31.633-31.633h22.067c18.825,0,34.133-15.309,34.133-34.133 C294.518,3.823,290.703,0,285.984,0z M260.384,25.6h-25.6c-2.261,0-4.429,0.896-6.033,2.5l-19.567,19.567V34.133 c0-9.412,7.654-17.067,17.067-17.067h48.905C272.212,22.161,266.691,25.6,260.384,25.6z"/>
            <path d="M361.88,448.444l-76.8-153.6l-15.266,7.637l72.986,145.963l-19.243,9.617l-68.105-120.747 c-4.241-7.953-12.493-12.954-21.606-13.047c-13.602,0-24.661,11.059-24.661,24.661v37.837 c-0.06,10.308-6.238,19.524-15.761,23.501L119.38,441.31l-9.506-19.004l68.642-30.507c3.081-1.374,5.069-4.42,5.069-7.799v-85.333 h-17.067v79.795l-71.731,31.872c-2.125,0.947-3.78,2.722-4.565,4.915c-0.785,2.193-0.64,4.617,0.401,6.699l17.067,34.133 c2.005,4.019,6.767,5.777,10.931,4.053l81.391-34.125c15.846-6.613,26.146-21.973,26.24-39.194v-37.888 c0-4.19,3.405-7.595,7.509-7.595c2.79,0.026,5.325,1.562,6.733,4.19l72.192,128c1.57,2.765,4.446,4.343,7.441,4.343 c1.289,0,2.586-0.29,3.806-0.905l34.133-17.067C362.281,457.788,363.988,452.659,361.88,448.444z"/>
            <path d="M136.165,474.991l-30.293-60.672c-1.007-2.022-2.782-3.567-4.932-4.284c-2.15-0.734-4.497-0.555-6.519,0.461 l-34.133,17.067c-2.022,1.015-3.558,2.79-4.275,4.932c-0.717,2.15-0.546,4.506,0.469,6.528l29.44,58.778 C90.281,506.556,99.053,512,108.832,512h4.437c9.779,0,18.569-5.453,22.903-14.216 C139.723,490.65,139.723,482.133,136.165,474.991z M120.907,490.197c-1.451,2.918-4.378,4.736-7.637,4.736h-4.437 c-3.251,0-6.178-1.818-7.629-4.736c0-0.009-0.008-0.017-0.008-0.034l-25.617-51.149l18.859-9.438l26.47,53.026 C122.093,484.983,122.093,487.817,120.907,490.197z"/>
            <path d="M404.538,448.427c-6.827-13.577-23.432-19.123-37.043-12.331l-51.2,25.6c-4.215,2.108-5.922,7.236-3.814,11.452 l17.067,34.133c1.502,2.995,4.514,4.719,7.646,4.719c1.289,0,2.586-0.29,3.806-0.905l51.2-25.6c0,0,0.009-0.009,0.017-0.009 C405.784,478.669,411.322,462.063,404.538,448.427z M384.561,470.229l-43.563,21.786l-9.429-18.867l43.546-21.777 c5.197-2.594,11.563-0.469,14.157,4.693C391.857,461.261,389.741,467.61,384.561,470.229z"/>
            <path d="M136.651,59.733c-7.057,0-12.8,5.743-12.8,12.8s5.743,12.8,12.8,12.8s12.8-5.743,12.8-12.8S143.708,59.733,136.651,59.733 z M136.651,76.8c-2.355,0-4.267-1.911-4.267-4.267c0-2.355,1.911-4.267,4.267-4.267c2.355,0,4.267,1.911,4.267,4.267 C140.918,74.889,139.006,76.8,136.651,76.8z"/>
            <path d="M401.449,159.224c-0.87-1.152-1.818-2.236-2.833-3.251c-5.589-5.555-12.988-8.602-20.864-8.602c-0.034,0-0.068,0-0.111,0 c-7.902,0.026-15.334,3.132-20.881,8.721l-36.062,36.062l-36.685-44.023l-13.116,10.923l42.667,51.2 c1.544,1.843,3.78,2.953,6.178,3.063c2.381,0.094,4.727-0.794,6.417-2.492l42.692-42.684c2.355-2.372,5.495-3.695,8.858-3.703 c0.008,0,0.026,0,0.043,0c3.328,0,6.477,1.289,8.832,3.635c0.435,0.435,0.853,0.905,1.212,1.391 c3.738,5.001,3.243,12.092-1.169,16.503l-42.197,42.197c-6.758,6.844-16.137,10.769-25.779,10.769c-0.034,0-0.026,0-0.102,0 c-12.194,0-23.484-6.067-30.285-16.307l-3.755-5.547l-14.131,9.574l3.712,5.47C283.996,247.083,300.602,256,318.522,256 c0.085,0,0.094,0,0.137,0c14.165,0,27.981-5.777,37.88-15.812l42.155-42.155C409.061,187.657,410.247,170.974,401.449,159.224z"/>
            <path d="M259.07,233.626c-1.596-7.791-6.127-14.498-12.484-18.697l-47.582-34.219l38.511-23.509 c0.102-0.051,0.196-0.119,0.29-0.179c0.529-0.35,1.041-0.717,1.562-1.118c6.289-4.838,10.308-11.836,11.332-19.703 c1.016-7.868-1.084-15.659-5.845-21.845c-9.472-12.706-27.238-15.753-40.192-7.083l-62.848,39.219 c-11.273,7.518-17.988,20.105-17.963,33.621c-0.017,13.56,6.69,26.138,17.775,33.528l71.697,50.731 c5.077,3.405,10.837,5.035,16.538,5.035c9.097,0,18.048-4.156,23.859-11.964c0.367-0.486,0.708-0.964,1.015-1.434 C259.121,249.37,260.666,241.417,259.07,233.626z M240.067,247.228c-4.045,5.427-11.631,6.733-17.075,3.089l-71.706-50.739 c-6.502-4.344-10.385-11.597-10.368-19.456c-0.017-7.825,3.857-15.078,10.146-19.285l62.865-39.228 c2.159-1.442,4.608-2.142,7.04-2.142c3.9,0,7.757,1.801,10.291,5.205c2.057,2.671,2.953,5.99,2.517,9.336 c-0.435,3.336-2.142,6.315-4.796,8.354l-49.843,30.49c-2.449,1.493-3.977,4.105-4.087,6.963c-0.102,2.859,1.229,5.581,3.55,7.253 l58.308,41.924c2.833,1.869,4.77,4.736,5.453,8.064C243.036,240.384,242.379,243.772,240.067,247.228z"/>
            <rect x="195.137" y="163.949" transform="matrix(0.4834 -0.8754 0.8754 0.4834 -36.1333 283.7344)"
                  width="54.392" height="17.067"/>
            <rect x="164.493" y="247.474" transform="matrix(0.4472 -0.8944 0.8944 0.4472 -127.5029 305.7093)"
                  width="38.16" height="17.066"/>
            <rect x="98.251" y="247.467" width="76.8" height="17.067"/>
            <rect x="396.923" y="131.639" transform="matrix(0.974 -0.2265 0.2265 0.974 -61.9461 100.1539)"
                  width="17.058" height="376.743"/>
            <rect x="132.384" y="102.4" width="93.867" height="17.067"/>
    </symbol>

    <symbol id="fire" viewBox="0 0 503.87 503.87">
        <path d="M487.507,425.013c3.383-2.238,6.314-5.092,8.64-8.414c6.707-10.129,9.157-22.492,6.82-34.414 c-4.094-23.103-21.918-38.672-40.578-35.602l-0.011,0.004h-0.002l-61.01,10.402c10.981-18.431,17.224-39.296,18.17-60.73 c0.389-7.185,0.35-14.386-0.119-21.566c-0.91-30.957-9.224-61.245-24.246-88.328c-17.264-26.67-37.823-51.056-61.193-72.578 c-13.963-14.012-28.537-36.709-27.549-58.381c0.504-11.457,5.982-22.124,15-29.209l0.029-0.025l0.004-0.004 c2.509-2.101,3.568-5.468,2.715-8.627s-3.465-5.534-6.69-6.086c-1.943-0.561-7.643-2.549-12.59-4.258 c-4.574-1.582-8.594-2.934-9.279-3.102c-17.943-4.888-36.795-5.408-54.979-1.516c-22.817,4.878-42.63,18.909-54.807,38.811 c-12.184,21.668-16.41,46.914-11.947,71.369c-35.811-4.295-57.475,7.709-69.643,19.234c-4.226,3.886-5.943,9.799-4.455,15.344 c1.636,5.817,6.327,10.271,12.221,11.603c7.955,1.914,16.836,4.803,17.922,5.234c12.742,5.418,24.66,16.291,22.557,28.356 c-2.496,7.325-7.037,13.781-13.086,18.607l-0.885,0.893c-8.453,8.602-15.501,18.479-20.885,29.27 c-20.116,38.176-17.088,84.414,7.835,119.64l-83.97-14.353h-0.005l-0.011-0.004C22.841,343.46,5,359.066,0.898,382.23 c-2.329,11.908,0.122,24.254,6.824,34.369c2.327,3.324,5.263,6.176,8.652,8.408c-3.409,2.251-6.362,5.128-8.701,8.477 c-6.681,10.117-9.109,22.458-6.758,34.353c3.643,20.869,19.209,36.033,35.93,36.033c1.083-0.028,2.164-0.12,3.237-0.275h0.001 c0.475,0.001,0.95-0.039,1.418-0.119l210.555-35.914l210.318,35.914c0.353,0.053,0.708,0.083,1.065,0.089 c1.188,0.179,2.386,0.28,3.587,0.304c16.721,0,32.287-15.168,35.93-36.033c2.351-11.894-0.077-24.235-6.758-34.352 C493.861,430.138,490.912,427.263,487.507,425.013z M121.201,294.681L121.201,294.681c0.439-26.459,10.886-51.77,29.237-70.836 l0.877-0.881c8.631-7.116,14.824-16.751,17.713-27.557c3.229-18.578-9.537-36.902-32.52-46.68 c-6.444-2.311-13.056-4.121-19.779-5.414c10.853-9.77,30.979-19.369,66.16-12.074c2.84,0.589,5.783-0.33,7.783-2.431 c2-2.101,2.773-5.086,2.045-7.893c-6.979-23.689-4.279-49.18,7.508-70.881c9.81-16.086,25.871-27.366,44.332-31.135 c15.521-3.24,31.59-2.742,46.881,1.451c0.918,0.266,4.23,1.422,7.975,2.717c0.496,0.168,0.971,0.332,1.439,0.496 c-6.83,8.968-10.738,19.819-11.193,31.082c-1.045,23.029,11.078,49.566,32.586,71.156c22.266,20.493,41.892,43.68,58.426,69.025 c13.678,24.838,21.218,52.586,21.992,80.931c0.427,6.51,0.464,13.039,0.111,19.553c-0.884,29.565-13.8,57.487-35.758,77.304 c-2.96,2.723-6.11,5.267-9.339,7.728c8.996-16.035,11.309-34.97,6.437-52.699c-1.589-6.164-3.827-12.143-6.676-17.836 c-1.64-3.354-3.537-6.576-5.676-9.636c-0.221-0.312-1.25-1.496-2.463-2.812c-0.787-0.852-1.68-1.811-2.201-2.418 c-1.712-2.62-4.739-4.07-7.853-3.763c-3.115,0.307-5.799,2.322-6.966,5.226c-0.008,0.045-0.008,0.025-0.008,0.025 c-0.607,1.516-1.078,3.02-1.533,4.512c-0.419,1.759-1.106,3.442-2.037,4.992c-1.664,2.308-3.822,4.216-6.316,5.586 c-8.811,4.617-19.029,5.777-28.652,3.254c-0.168-0.057-0.406-0.143-0.693-0.246c11.116-14.756,16.984-32.803,16.672-51.275 c-0.347-4.334-1.081-8.628-2.193-12.832c-6.227-22.763-20.792-42.349-40.799-54.865c-0.283-0.176-0.906-0.52-1.705-0.934 c-0.647-0.336-1.541-0.771-2.262-1.205c-1.553-1.872-3.843-2.976-6.275-3.025c-4.603-0.016-8.392,3.617-8.57,8.217 c-0.086,4.221,0.004,8.443,0.094,12.656c0.636,9.431,0.039,18.904-1.775,28.18c-3.249,10.746-9.941,20.127-19.045,26.697 c-5.434,4.239-11.13,8.13-17.053,11.652c-6.358,3.805-12.48,7.992-18.332,12.537c-16.38,12.547-26.181,31.851-26.643,52.479 c1.202,20.801,11.182,40.112,27.455,53.124C150.027,375.842,121.201,338.024,121.201,294.681z M264.865,214.808 c12.783,10.183,22.029,24.139,26.422,39.881c0.881,3.345,1.454,6.764,1.713,10.213c1.324,16.697-8.344,32.369-19.238,48.279 c-1.531,2.267-1.895,5.127-0.979,7.705c1.799,4.975,9.799,8.172,16.18,9.975c4.669,1.304,9.492,1.977,14.34,2 c9.523,0.063,18.912-2.246,27.32-6.718c4.404-2.457,8.246-5.806,11.283-9.832c0.201,0.385,0.398,0.766,0.598,1.156 c2.308,4.643,4.119,9.517,5.402,14.541c9.442,35.056-17.097,59.354-34.762,71.194c-16.437,5.312-33.6,8.033-50.873,8.064 c-4.912,0-9.762-0.207-14.549-0.621l-0.062-0.042c-15.32-6.607-65.332-31.033-65.717-67.939 c0.521-15.519,8.036-29.969,20.443-39.307c5.315-4.107,10.873-7.889,16.643-11.328c6.515-3.887,12.776-8.184,18.746-12.865 c11.978-8.844,20.686-21.409,24.762-35.73C264.554,234.035,265.337,224.411,264.865,214.808z M47.205,481.066 c-1.956,3.011-5.031,5.12-8.545,5.861c-9.172,1.549-18.852-8.504-21.205-21.975c-1.546-7.498-0.137-15.303,3.934-21.787 c1.932-2.946,4.932-5.027,8.368-5.805l0.47-0.08c0.528-0.083,1.062-0.128,1.596-0.135c8.553,0,17.127,9.59,19.316,22.135 C52.686,466.777,51.277,474.583,47.205,481.066z M31.443,412.943l-1.421-0.201l-0.079-0.012c-3.501-0.737-6.567-2.835-8.521-5.832 c-4.082-6.476-5.51-14.276-3.988-21.779c2.381-13.459,12.118-23.553,21.258-21.98l103.231,17.646 c6.263,6.252,13.067,11.937,20.333,16.988L52.413,416.517L31.443,412.943z M438.573,482.379l-136.618-23.329l143.809-24.53 C435.309,448.182,432.594,466.25,438.573,482.379z M486.414,464.951c-2.348,13.471-12.021,23.525-21.205,21.975 c-3.514-0.741-6.589-2.849-8.545-5.861c-4.071-6.484-5.481-14.289-3.934-21.787c2.188-12.545,10.762-22.135,19.316-22.135 c0.457,0.011,0.912,0.049,1.364,0.115l0.712,0.103c3.432,0.78,6.428,2.859,8.359,5.802 C486.551,449.648,487.96,457.453,486.414,464.951z M482.447,406.898L482.447,406.898c-1.912,2.953-4.907,5.037-8.34,5.803 l-1.697,0.25c-0.076,0.011-0.132,0.061-0.207,0.074l-22.453,3.828c-0.112,0.024-0.223,0.029-0.334,0.057l-199.027,33.927 c-0.19,0.036-0.377,0.047-0.561,0.096L65.294,482.39c3.148-8.286,3.973-17.275,2.387-25.996 c-1.485-8.738-5.343-16.899-11.151-23.594l128.565-21.893c24.132,11.378,50.496,17.236,77.176,17.147 c18.78-0.042,37.442-2.972,55.331-8.687c0.594-0.122,1.173-0.307,1.727-0.553c5.405-1.777,10.681-3.794,15.826-6.053 c0.364-0.124,0.718-0.274,1.06-0.449c15.434-6.793,29.673-16.027,42.17-27.347c2.959-2.722,5.73-5.553,8.375-8.455l78.413-13.369 h0.003c9.176-1.529,18.877,8.521,21.254,21.934C487.96,392.59,486.534,400.407,482.447,406.898z"/>
    </symbol>

    <symbol id="map" viewBox="0 0 512.003 512.003">
            <path d="M508.605,1.724c-2.142-1.613-4.915-2.125-7.484-1.391l-89.6,25.6l4.685,16.41l78.729-22.494v443.051l-111.01,31.718 L258.203,461.09c-1.451-0.384-2.961-0.384-4.403,0l-125.722,33.527l-111.01-31.718V19.849l108.587,31.019 c1.493,0.435,3.063,0.435,4.548,0.043l125.798-33.544l74.598,19.9l4.403-16.495l-76.8-20.48c-1.451-0.384-2.961-0.384-4.403,0 L128.078,33.818L10.882,0.333C8.313-0.401,5.54,0.111,3.398,1.724c-2.142,1.613-3.396,4.13-3.396,6.81v460.8 c0,3.806,2.526,7.159,6.187,8.209l119.467,34.133c1.493,0.427,3.063,0.435,4.548,0.034l125.798-33.545L381.8,511.71 c0.725,0.188,1.459,0.29,2.202,0.29c0.794,0,1.579-0.111,2.338-0.324l119.467-34.133c3.669-1.05,6.195-4.403,6.195-8.209V8.533 C512.002,5.854,510.747,3.337,508.605,1.724z"/>
            <path d="M107.863,256c-10.743,0-21.146,3.149-30.08,9.114c-12.032,8.03-20.224,20.275-23.057,34.466 c-2.833,14.2,0.034,28.655,8.064,40.687l37.973,57.003c1.579,2.372,4.25,3.797,7.1,3.797c2.859,0,5.521-1.425,7.1-3.797 l37.973-57.003c5.956-8.934,9.114-19.337,9.114-30.08C162.05,280.311,137.738,256,107.863,256z M138.737,330.803l-30.874,46.345 l-30.874-46.345c-5.504-8.252-7.475-18.15-5.53-27.878c1.937-9.728,7.552-18.108,15.795-23.612 c6.127-4.087,13.252-6.246,20.608-6.246c20.471,0,37.12,16.649,37.12,37.12C144.983,317.542,142.824,324.668,138.737,330.803z"/>
            <circle cx="107.863" cy="307.2" r="17.067"/>
            <path d="M375.468,0c-10.752,0-21.146,3.157-30.071,9.114c-24.849,16.589-31.582,50.295-15.002,75.145l37.973,57.003 c1.587,2.381,4.25,3.806,7.1,3.806c2.85,0,5.521-1.425,7.108-3.806l37.973-56.994c5.965-8.934,9.114-19.337,9.114-30.08 C429.655,24.311,405.344,0,375.468,0z M406.342,74.795l-30.874,46.345l-30.874-46.353c-11.358-17.024-6.75-40.115,10.274-51.482 c6.118-4.079,13.235-6.238,20.599-6.238c20.471,0,37.12,16.657,37.12,37.112C412.588,61.534,410.429,68.659,406.342,74.795z"/>
            <circle cx="375.468" cy="51.2" r="17.067"/>
            <path d="M435.202,213.333h-25.6c-14.114,0-25.6-11.486-25.6-25.6v-25.6h-17.067v25.6c0,23.526,19.14,42.667,42.667,42.667h25.6 c14.114,0,25.6,11.486,25.6,25.6s-11.486,25.6-25.6,25.6h-179.2c-23.526,0-42.667,19.14-42.667,42.667 c0,23.526,19.14,42.667,42.667,42.667h85.333c14.114,0,25.6,11.486,25.6,25.6c0,14.114-11.486,25.6-25.6,25.6H102.402V435.2 h238.933c23.526,0,42.667-19.14,42.667-42.667c0-23.526-19.14-42.667-42.667-42.667h-85.333c-14.114,0-25.6-11.486-25.6-25.6 s11.486-25.6,25.6-25.6h179.2c23.526,0,42.667-19.14,42.667-42.667C477.868,232.474,458.728,213.333,435.202,213.333z"/>
            <path d="M458.301,147.567L441.235,130.5c-3.337-3.336-8.73-3.336-12.066,0l-17.067,17.067c-1.604,1.596-2.5,3.772-2.5,6.033v25.6 c0,4.71,3.814,8.533,8.533,8.533h34.133c4.719,0,8.533-3.823,8.533-8.533v-25.6C460.802,151.339,459.906,149.163,458.301,147.567z M443.735,170.667h-17.067v-13.534l8.533-8.533l8.533,8.533V170.667z"/>
            <path d="M315.291,125.303l-17.067-51.2c-1.152-3.49-4.412-5.837-8.09-5.837s-6.929,2.347-8.098,5.828l-17.067,51.2 c-0.87,2.603-0.435,5.461,1.169,7.689c1.613,2.236,4.19,3.55,6.929,3.55h34.133c2.739,0,5.316-1.314,6.921-3.541 S316.17,127.906,315.291,125.303z M284.913,119.467l5.222-15.684l5.231,15.684H284.913z"/>
            <rect x="281.602" y="128" width="17.067" height="25.6"/>
            <path d="M460.358,406.903l-17.067-51.2c-1.152-3.49-4.412-5.837-8.09-5.837s-6.929,2.347-8.098,5.837l-17.067,51.2 c-0.87,2.594-0.435,5.461,1.169,7.689c1.613,2.227,4.19,3.541,6.929,3.541h34.133c2.739,0,5.316-1.314,6.921-3.541 C460.793,412.373,461.237,409.506,460.358,406.903z M429.979,401.067l5.222-15.684l5.231,15.684H429.979z"/>
            <rect x="426.668" y="409.6" width="17.067" height="25.6"/>
            <path d="M143.362,148.48c-3.217-4.301-10.436-4.301-13.653,0l-25.6,34.133l13.653,10.24l18.773-25.028l18.773,25.028l13.653-10.24 L143.362,148.48z"/>
            <path d="M100.695,131.413c-1.664-2.21-4.344-3.507-7.066-3.405c-2.765,0.077-5.325,1.493-6.861,3.797l-34.133,51.2l14.199,9.464 l27.443-41.165l18.364,24.482l13.653-10.24L100.695,131.413z"/>
            <path d="M279.101,215.834l-17.067-17.067c-3.337-3.337-8.73-3.337-12.066,0l-17.067,17.067c-1.604,1.596-2.5,3.772-2.5,6.033v25.6 c0,4.71,3.823,8.533,8.533,8.533h34.133c4.719,0,8.533-3.823,8.533-8.533v-25.6C281.602,219.605,280.706,217.429,279.101,215.834z M264.535,238.933h-17.067v-13.534l8.533-8.533l8.533,8.533V238.933z"/>
            <path d="M247.033,125.303l-17.067-51.2c-1.161-3.49-4.42-5.837-8.098-5.837s-6.929,2.347-8.098,5.828l-17.067,51.2 c-0.862,2.603-0.427,5.461,1.178,7.689c1.604,2.236,4.181,3.55,6.921,3.55h34.133c2.739,0,5.316-1.314,6.921-3.541 S247.904,127.906,247.033,125.303z M216.637,119.467l5.231-15.684l5.231,15.684H216.637z"/>
            <rect x="213.335" y="128" width="17.067" height="25.6"/>
    </symbol>
    <symbol viewBox="0 0 512.1 93.8" id="zigZag">
        <g transform="matrix(-1.83697e-16 -1 1 -1.83697e-16 -0.00050354 317.979)">
            <path d="M312.7,181l-47.8-45.6l48-50.3c6.4-6.7,6.2-17.4-0.6-23.8L253.1,4.7c-3.3-3.1-7.5-4.8-12-4.7c-4.5,0.1-8.7,2-11.8,5.2
			c-6.4,6.7-6.2,17.4,0.6,23.8l47.1,45l-48,50.3c-3.1,3.3-4.8,7.5-4.6,12c0.1,4.1,1.6,7.9,4.3,10.9l0.2,0.3l48.4,46.2l-48,50.3
			c-3.6,3.7-5.2,8.9-4.4,14c0.4,4,2.2,7.8,5.1,10.6l47.1,45l-48,50.3c-6.1,6.4-6.2,16.4-0.3,22.9l0.2,0.3l48.4,46.2l-48,50.2
			c-6.4,6.7-6.2,17.4,0.6,23.8c3.3,3.1,7.5,4.7,12,4.6c4.5-0.1,8.7-2,11.8-5.2l59.6-62.5c3.1-3.3,4.8-7.5,4.7-12.1
			c-0.1-4.5-2-8.7-5.2-11.8L265,374.9l48-50.3c6.4-6.7,6.2-17.4-0.6-23.8l-47.5-45.4l48.3-50.6C319.6,198.2,319.4,187.5,312.7,181z
			 M303.5,195.6l-57.6,60.3l57.3,54.7c1.3,1.3,1.4,3.4,0.1,4.8l-57.3,60.1l57.5,54.9c1.3,1.3,1.4,3.4,0.1,4.8l-59.6,62.5
			c-0.6,0.7-1.5,1-2.4,1c-0.9,0-1.7-0.3-2.4-0.9c-1.3-1.3-1.4-3.4-0.1-4.8l57.3-60l-56.9-54.3c-0.1-0.2-0.2-0.3-0.3-0.5
			c-0.1-0.1-0.2-0.1-0.3-0.2c-1.3-1.3-1.4-3.4-0.1-4.8l57.3-60l-56.8-54.3c-0.7-0.7-1-1.5-1-2.4c-0.2-1.1,0-2.2,0.8-3.1l57.3-60
			l-56.9-54.3c-0.1-0.1-0.2-0.3-0.3-0.5c-0.1-0.1-0.2-0.1-0.3-0.2c-1.3-1.3-1.4-3.4-0.1-4.8l57.3-60l-56.8-54.3
			c-1.3-1.3-1.4-3.4-0.1-4.8c1.3-1.3,3.4-1.4,4.8-0.1L303,71.1c1.3,1.3,1.4,3.4,0.1,4.8l-57.3,60.1l57.5,54.9
			C304.7,192.1,304.7,194.2,303.5,195.6z"/>
        </g>
    </symbol>

    <symbol id="mountian" viewBox="0 -16 480.00068 480">
            <path d="m8 448h464c2.71875 0 5.25-1.378906 6.722656-3.664062 1.476563-2.285157 1.6875-5.164063.5625-7.640626l-98.277344-217.128906c-.128906-.273437-.273437-.539062-.433593-.796875-4.339844-7.226562-12.148438-11.648437-20.574219-11.648437-8.429688 0-16.238281 4.421875-20.578125 11.648437-.160156.257813-.300781.523438-.429687.796875l-18.992188 41.960938-40-88.375v-62.265625c5.671875 1.179687 11.03125 3.558593 15.710938 6.976562 19.402343 13.515625 45.171874 13.515625 64.574218 0 6.8125-5.15625 15.171875-7.851562 23.714844-7.640625 4.417969 0 8-3.578125 8-8v-62.222656c0-4.417969-3.582031-8-8-8-11.578125-.222656-22.914062 3.335938-32.289062 10.136719-14.167969 10.1875-33.257813 10.1875-47.425782 0-7.195312-5.121094-15.53125-8.417969-24.285156-9.601563v-8.535156c0-4.417969-3.582031-8-8-8h-32c-4.417969 0-8 3.582031-8 8v135.304688c-1.53125 1.558593-2.871094 3.289062-4 5.160156-.160156.257812-.304688.523437-.433594.800781l-23.703125 52.335937c-4.597656-6.78125-12.339843-10.746093-20.527343-10.519531-8.1875.226563-15.695313 4.613281-19.914063 11.636719-.160156.261719-.300781.527344-.429687.800781l-35.34375 78.089844-13.976563-30.882813c-.128906-.273437-.273437-.539062-.433594-.796874-3.707031-6.1875-10.390625-9.972657-17.601562-9.972657-7.210938 0-13.890625 3.785157-17.597657 9.972657-.15625.257812-.296874.523437-.425781.796874l-76.902343 169.976563c-1.121094 2.476563-.90625 5.351563.566406 7.632813 1.472656 2.285156 4.003906 3.664062 6.722656 3.664062zm252.398438-16 37.601562-83.128906c7.453125 11.625 20.191406 18.792968 34 19.128906 17.847656-.699219 33.480469-12.183594 39.480469-29.007812 14.300781 7.429687 31.503906 6.542968 44.964843-2.320313l43.152344 95.328125zm99.601562-208.902344c2.675781-.019531 5.183594 1.320313 6.65625 3.558594l43.101562 95.238281c-11.269531 8.503907-26.980468 7.832031-37.488281-1.597656-2.148437-1.902344-5.148437-2.507813-7.863281-1.589844-2.71875.921875-4.734375 3.222657-5.289062 6.039063-3.117188 16.054687-14.320313 27.253906-27.117188 27.253906-12.273438-.988281-22.5625-9.667969-25.601562-21.601562l46.960937-103.757813c1.472656-2.226563 3.96875-3.5625 6.640625-3.542969zm-64.289062-167.457031c19.402343 13.515625 45.171874 13.515625 64.574218 0 4.683594-3.417969 10.039063-5.800781 15.714844-6.992187v46.046874c-8.765625 1.191407-17.101562 4.511719-24.289062 9.664063-14.167969 10.1875-33.257813 10.1875-47.425782 0-7.183594-5.152344-15.523437-8.472656-24.285156-9.664063v-46.046874c5.671875 1.191406 11.027344 3.574218 15.710938 6.992187zm-31.710938-23.640625v121.601562c-3.75-1.792968-7.847656-2.722656-12-2.730468-1.339844.007812-2.675781.105468-4 .296875v-119.167969zm-86.65625 194.65625c1.484375-2.226562 3.980469-3.5625 6.65625-3.5625 2.671875 0 5.171875 1.335938 6.65625 3.5625l6.054688 13.382812c1.296874 2.863282 4.144531 4.703126 7.289062 4.703126 3.140625 0 5.992188-1.839844 7.285156-4.703126l30.640625-67.6875c2.304688-3.277343 6.0625-5.230468 10.074219-5.230468 4.007812 0 7.765625 1.953125 10.070312 5.230468l49.128907 108.578126-68.359375 151.070312h-54.402344l-52-114.945312zm-81.695312 45.34375c1.460937-.011719 2.839843.695312 3.679687 1.894531l42.4375 93.769531c-3.871094 5.058594-9.800781 8.117188-16.167969 8.335938-11.0625 0-20.703125-9.75-23.4375-23.703125-.550781-2.816406-2.570312-5.121094-5.285156-6.042969-2.71875-.917968-5.71875-.316406-7.867188 1.585938-8.71875 7.90625-21.738281 8.761718-31.417968 2.066406l34.402344-76c.832031-1.195312 2.199218-1.910156 3.65625-1.90625zm-44.683594 92.464844c11.828125 7.054687 26.394531 7.761718 38.851562 1.886718 5.675782 14.972657 19.78125 25.078126 35.78125 25.648438 8.539063-.066406 16.765625-3.1875 23.199219-8.800781l22.089844 48.800781h-150.488281zm0 0"/>
            <path d="m104 152c30.925781 0 56-25.070312 56-56 0-30.925781-25.074219-56-56-56-30.929688 0-56 25.074219-56 56 .035156 30.914062 25.085938 55.964844 56 56zm0-96c22.089844 0 40 17.910156 40 40s-17.910156 40-40 40c-22.09375 0-40-17.910156-40-40 .023438-22.082031 17.917969-39.972656 40-40zm0 0"/>
            <path d="m96 176v8c0 4.417969 3.582031 8 8 8s8-3.582031 8-8v-8c0-4.417969-3.582031-8-8-8s-8 3.582031-8 8zm0 0"/>
            <path d="m104 24c4.417969 0 8-3.582031 8-8v-8c0-4.417969-3.582031-8-8-8s-8 3.582031-8 8v8c0 4.417969 3.582031 8 8 8zm0 0"/>
            <path d="m184 104h8c4.417969 0 8-3.582031 8-8s-3.582031-8-8-8h-8c-4.417969 0-8 3.582031-8 8s3.582031 8 8 8zm0 0"/>
            <path d="m16 104h8c4.417969 0 8-3.582031 8-8s-3.582031-8-8-8h-8c-4.417969 0-8 3.582031-8 8s3.582031 8 8 8zm0 0"/>
            <path d="m42.34375 45.65625c3.136719 3.03125 8.128906 2.988281 11.214844-.097656 3.085937-3.085938 3.128906-8.074219.097656-11.214844l-8-8c-2.011719-2.078125-4.984375-2.914062-7.78125-2.179688-2.796875.730469-4.980469 2.914063-5.714844 5.710938-.730468 2.796875.101563 5.773438 2.183594 7.78125zm0 0"/>
            <path d="m160 48c2.121094 0 4.15625-.84375 5.65625-2.34375l8-8c2.078125-2.007812 2.910156-4.984375 2.179688-7.78125-.730469-2.796875-2.917969-4.980469-5.714844-5.710938-2.796875-.734374-5.769532.101563-7.777344 2.179688l-8 8c-2.289062 2.289062-2.972656 5.730469-1.734375 8.71875s4.152344 4.9375 7.390625 4.9375zm0 0"/>
            <path d="m42.34375 146.34375-8 8c-2.082031 2.007812-2.914062 4.984375-2.183594 7.78125.734375 2.796875 2.917969 4.980469 5.714844 5.714844 2.796875.730468 5.769531-.105469 7.78125-2.183594l8-8c3.03125-3.140625 2.988281-8.128906-.097656-11.214844-3.085938-3.085937-8.078125-3.128906-11.214844-.097656zm0 0"/>
            <path d="m165.65625 146.34375c-3.140625-3.03125-8.128906-2.988281-11.214844.097656-3.085937 3.085938-3.128906 8.074219-.097656 11.214844l8 8c3.136719 3.03125 8.128906 2.988281 11.214844-.097656 3.085937-3.085938 3.128906-8.074219.097656-11.214844zm0 0"/>
    </symbol>
    <symbol id="country" viewBox="0 0 479.43819 479">
        <path d="m478.636719 221.765625c.277343-.75.4375-1.535156.472656-2.335937 0-.84375-.136719-1.683594-.398437-2.484376l-.617188-1.746093c-6.53125-63.125-37.867188-121.070313-87.121094-161.085938-3.519531-2.867187-7.199218-5.457031-10.878906-8.113281-.183594-.152344-.28125-.367188-.480469-.511719s-.359375-.128906-.527343-.234375c-40.722657-29.191406-89.542969-44.929687-139.648438-45.023437-2.0625 0-4.136719 0-5.679688.160156-26.726562.519531-53.164062 5.605469-78.175781 15.039063-21.683593-16.914063-51.117187-19.980469-75.824219-7.898438-24.707031 12.082031-40.359374 37.199219-40.320312 64.699219.480469 9.148437 2.605469 18.132812 6.28125 26.519531-8.164062 11.160156-15.351562 23-21.480469 35.394531-.121093.191407-.191406.398438-.296875.597657-56.71875 117.277343-9.523437 258.390624 106.339844 317.945312 115.859375 59.558594 258.078125 15.8125 320.4375-98.566406 17.078125-31.464844 26.785156-66.398438 28.382812-102.160156.25-3.859376.335938-7.792969.335938-11.730469 0-6.199219-.320312-12.34375-.800781-18.464844zm-23.246094-41.054687c-1.015625-.902344-1.953125-1.945313-3.015625-2.777344-10.453125-7.9375-22.300781-13.855469-34.929688-17.445313-11.5-2.886719-23.519531-3.011719-35.078124-.367187-9.832032 2.226562-20.027344 2.277344-29.882813.148437-19.125-4.175781-34.238281-7.46875-42.253906-20.269531-11.480469-18.402344-6.097657-44.265625 6.015625-53.367188 3.992187-2.753906 8.917968-3.804687 13.6875-2.921874 8.484375.695312 17.011718-.742188 24.800781-4.175782 8.289063-3.882812 15.652344-9.488281 21.601563-16.449218 1.511718 1.167968 3.109374 2.21875 4.589843 3.425781 36.101563 29.390625 62.128907 69.3125 74.464844 114.199219zm-343.953125-164.480469c30.910156.050781 55.953125 25.09375 56 56 0 23.929687-35.941406 78.714843-56 106.488281-19.019531-25.703125-35.546875-53.164062-49.351562-82.007812-3.761719-7.660157-6.019532-15.96875-6.648438-24.480469.035156-30.914063 25.085938-55.964844 56-56zm-96 224c.03125-14.90625 1.535156-29.777344 4.488281-44.390625.855469 11.121094 2.304688 21.015625 3.601563 29.597656 4.957031 32.800781 9.640625 63.722656 33.816406 92 10.109375 11.914062 27.039062 31.832031 53.214844 34.777344 26.175781 2.945312 58.953125-12.113282 68.421875-16.800782l3.632812-1.832031c5.03125-3.167969 10.78125-5.007812 16.714844-5.351562 10.121094.917969 19.496094 5.707031 26.175781 13.367187 13.652344 15.113282 17.117188 40.347656 7.414063 54-3.109375 4.054688-7.402344 7.039063-12.289063 8.539063-8.363281 2.796875-15.472656 8.464843-20.0625 16-6.761718 12.242187-8.019531 26.777343-3.457031 40-105.359375-20.414063-181.507813-112.585938-181.671875-219.90625zm224 224c-7.730469 0-15.453125-.398438-23.144531-1.191407-.65625-.839843-1.265625-1.714843-1.824219-2.625-5.40625-10-5.464844-22.042968-.152344-32.09375 2.886719-4.585937 7.359375-7.949218 12.5625-9.449218 7.628906-2.628906 14.285156-7.515625 19.078125-14.007813 13.914063-19.566406 9.976563-53.464843-8.558593-73.96875-9.640626-11.023437-23.28125-17.742187-37.894532-18.664062h-.355468c-8.425782.253906-16.636719 2.699219-23.832032 7.097656l-3.414062 1.726563c-17.480469 8.617187-42.351563 17.136718-59.566406 15.199218-19.867188-2.222656-33.664063-18.480468-42.816407-29.246094-21.21875-24.800781-25.371093-52.242187-30.167969-84-5.148437-27.167968-5.351562-55.039062-.609374-82.28125 4.285156-8.675781 9.125-17.066406 14.496093-25.121093.265625.53125.558594 1.074219.800781 1.601562.511719 1.015625 1.039063 2.023438 1.597657 3.039063.800781 1.511718 1.601562 3.023437 2.402343 4.546875.550782 1.023437 1.109376 2.046875 1.679688 3.078125.847656 1.519531 1.703125 3.039062 2.566406 4.558594.578125 1.007812 1.152344 2.019531 1.738282 3.027343.890624 1.519531 1.78125 3.03125 2.679687 4.542969.589844.992188 1.175781 1.976562 1.773437 2.960938.945313 1.597656 1.898438 3.09375 2.851563 4.636718.542969.875 1.078125 1.761719 1.597656 2.625 1.183594 1.898438 2.359375 3.738282 3.535157 5.601563.3125.480469.625.984375.929687 1.457031 1.464844 2.269531 2.917969 4.484375 4.34375 6.644531.542969.800781 1.070313 1.601563 1.601563 2.402344.878906 1.320313 1.757812 2.640625 2.613281 3.902344l1.898437 2.777343c.6875 1.015626 1.382813 2.03125 2.054688 3l1.917968 2.757813c.59375.859375 1.1875 1.699219 1.753907 2.503906.566406.808594 1.207031 1.722657 1.800781 2.546875.589844.824219.992188 1.398438 1.464844 2.0625l1.597656 2.207032 1.304688 1.808593 1.273437 1.753907 1.039063 1.40625.976562 1.328124.582031.800782c.714844.96875 1.257813 1.695312 1.410157 1.894531 1.507812 2.015625 3.878906 3.203125 6.398437 3.203125s4.890625-1.1875 6.398437-3.203125c6.714844-8.902344 65.617188-87.871094 65.617188-124.847656 0-2.335938-.144531-4.65625-.367188-6.960938-.070312-.710937-.183593-1.421875-.273437-2.132812-.207031-1.601563-.453125-3.203125-.796875-4.800781-.152344-.800782-.320312-1.550782-.496094-2.320313-.371094-1.601563-.800781-3.199219-1.289062-4.800781-.199219-.640625-.367188-1.289063-.578125-1.917969-.71875-2.144531-1.527344-4.265625-2.445313-6.328125-.175781-.394531-.386718-.800781-.570312-1.160156-.800782-1.664063-1.597656-3.3125-2.519532-4.921875-.398437-.71875-.839843-1.414063-1.269531-2.121094-.769531-1.261719-1.570312-2.503906-2.402343-3.726563-.496094-.710937-1-1.421874-1.519532-2.121093-.273437-.351563-.503906-.726563-.800781-1.070313 16.644531-5.605468 33.90625-9.183594 51.410156-10.65625-12.472656 23.542969-16.546875 45.320313-11.890625 64.800782 3.472656 13.046874 10.0625 25.058593 19.203125 35 7.527344 9.320312 12.941407 16.039062 12.605469 27.007812-.6875 23.199219-26.886719 42.511719-36.800781 49.808594-13.003907 9.363281-27.539063 16.382812-42.957031 20.75-14.53125 4.746094-27.066407 8.839844-31.859376 23.144531-4.738281 18.890625 3.042969 38.710937 19.371094 49.328125 9.785156 5.285156 21.316406 6.304688 31.878906 2.816406 11.570313-2.6875 23.53125-3.261718 35.304688-1.6875 15.199219 2.152344 28.304688 4 34.519531 12.703125 3.6875 5.199219 3.496094 10.574219 2.777344 20.433594-1.640625 13.957031-.222656 28.105469 4.148437 41.460937 3.648438 10.945313 9.160157 27.472657 22.402344 29.378907.859375.136719 1.730469.207031 2.597656.207031 9.371094 0 15.105469-8.273438 21.136719-16.976562 2.664063-3.847657 5.601563-8 9.121094-12.167969 16.464844 26.601562 33.191406 48.800781 33.96875 49.855469 1.511719 2.015624 3.882813 3.199218 6.398437 3.199218 2.519532 0 4.890626-1.183594 6.402344-3.199218 17.355469-23.242188 33.175782-47.601563 47.351563-72.910157 9.828125 2.847657 19.1875 7.113281 27.78125 12.664063-40.027344 69-113.773438 111.457031-193.542969 111.421875zm149.320312-217.703125c11.886719 10.601562 18.683594 25.773437 18.679688 41.703125 0 5.753906-2.335938 17.160156-13.429688 38.824219-12.664062 23.472656-26.882812 46.066406-42.570312 67.632812-7.527344-10.488281-20.480469-29.105469-32.070312-48.671875-6.460938-10.726563-12.230469-21.847656-17.28125-33.304687-3.761719-7.660157-6.019532-15.96875-6.648438-24.480469.035156-30.914063 25.085938-55.964844 56-56 1.730469 0 3.445312.078125 5.152344.234375 11.960937 1.082031 23.25 6.019531 32.167968 14.0625zm74.398438 4.609375c-1.378906 30.429687-9.046875 60.242187-22.527344 87.558593-8.765625-5.542968-18.210937-9.941406-28.09375-13.089843 6.179688-11.566407 9.894532-24.296875 10.902344-37.375-.066406-27.453125-15.675781-52.5-40.296875-64.65625l-.503906-.222657c-1.789063-.863281-3.605469-1.671874-5.460938-2.398437-1.273437-.496094-2.59375-.882813-3.898437-1.296875-.800782-.242188-1.519532-.542969-2.296875-.800781-2.0625-.585938-4.160157-1.0625-6.269531-1.457031h-.105469c-1.277344-.238282-2.574219-.367188-3.871094-.535157-20.570313-2.847656-41.363281 3.390625-56.96875 17.089844-15.609375 13.703125-24.488281 33.511719-24.328125 54.277344.621094 10.664062 3.3125 21.109375 7.921875 30.746093 4.484375 10.210938 9.542969 20.160157 15.152344 29.796876-5 5.472656-9.578125 11.3125-13.699219 17.472656-2.199219 3.769531-4.976562 7.167968-8.230469 10.074218-1.601562-.242187-4.566406-3.65625-9.601562-18.625-3.671875-11.363281-4.824219-23.394531-3.367188-35.246093 2.078125-10.644531.035157-21.679688-5.710937-30.875-10.214844-14.285157-28.046875-16.800781-45.398438-19.261719-13.488281-1.84375-27.199218-1.226562-40.464844 1.816406-10.234374 1.957032-14.984374 2.6875-20.417968-.699218-9.925782-6.804688-14.886719-18.839844-12.640625-30.664063 2.136719-6.398437 8.539062-8.710937 21.601562-13 17.058594-4.894531 33.136719-12.707031 47.527344-23.09375 11.65625-8.550781 42.402344-31.242187 43.328125-62.199219.511719-16.9375-7.960938-27.386718-16.152344-37.488281-7.570312-8.109375-13.078125-17.917969-16.0625-28.601563-4.25-17.824218 1.015625-38.726562 15.296875-62.152343h.917969c44.042969.0625 87.097656 13.078125 123.800781 37.425781-4.238281 4.722656-9.367187 8.558594-15.097656 11.289062-5.578125 2.414063-11.675781 3.367188-17.726563 2.773438-8.414062-1.039062-16.90625 1.144531-23.777343 6.113281-18.140625 13.65625-26.269531 48.480469-9.964844 74.632813 11.605469 18.535156 31.429687 22.855468 53.078125 27.574218 11.652344 2.460938 23.695312 2.410157 35.328125-.152343 9.335937-2.226563 19.070313-2.199219 28.390625.089843 10.488281 3.023438 20.332031 7.953126 29.042969 14.535157 9.046875 7.503906 15.90625 17.300781 19.863281 28.367187.65625 7.066406 1.0625 14.152344 1.0625 21.351563 0 3.578125-.070312 7.199219-.3125 10.90625zm0 0"/>
        <path d="m111.4375 96.230469c17.671875 0 32-14.324219 32-32 0-17.671875-14.328125-32-32-32s-32 14.328125-32 32c0 17.675781 14.328125 32 32 32zm0-48c8.835938 0 16 7.164062 16 16 0 8.835937-7.164062 16-16 16s-16-7.164063-16-16c0-8.835938 7.164062-16 16-16zm0 0"/>
        <path d="m319.4375 280.230469c0 17.675781 14.328125 32 32 32s32-14.324219 32-32c0-17.671875-14.328125-32-32-32s-32 14.328125-32 32zm48 0c0 8.835937-7.164062 16-16 16s-16-7.164063-16-16c0-8.835938 7.164062-16 16-16s16 7.164062 16 16zm0 0"/>
    </symbol>
</svg>